<svg width="25" height="25" viewBox="0 0 25 25" fill="none" xmlns="http://www.w3.org/2000/svg">
<path d="M2.5 14.5V20.5L4.5 22.5H16.5L18.5 20.5V14.5L17.5 13.5V10.5L16.5 9.5V7.5L15.5 7V5.5L14.5 4.5V3.5L13.5 2.5L11.5 4.5H9.5L7.5 2.5L6.5 3V4.5L5.5 5.5V6.5L4.5 7.5V9.5L3.5 10.5V13.5L2.5 14.5Z" fill="#CFCFCF" stroke="black"/>
<path d="M22 22.5H17.5L18 20.5H20.5L21.5 20V18.5L20.5 17.5L22 16.3125L23.5 17.5V20.5L22 22.5Z" fill="#CFCFCF" stroke="black"/>
<path d="M3 15V16L4 15H3Z" stroke="#464646"/>
<path d="M18 15V16L17 15H18Z" stroke="#464646"/>
<path d="M3 18V19L4 18H3Z" stroke="#464646"/>
<path d="M18 18V19L17 18H18Z" stroke="#464646"/>
<path d="M12.5 20.5V23H14.5V19" stroke="black"/>
<line x1="13.5" y1="23" x2="13.5" y2="21" stroke="#CFCFCF"/>
<path d="M7.5 19V23H9.5V20.5" stroke="black"/>
<line x1="8.5" y1="23" x2="8.5" y2="21" stroke="#CFCFCF"/>
<rect x="7" y="8" width="1" height="1" fill="black"/>
<rect x="13" y="8" width="1" height="1" fill="black"/>
<path d="M11.8535 9.14648L11.1465 9.85352L10.5 9.20703L9.85352 9.85352L9.14648 9.14648L10.5 7.79297L11.8535 9.14648Z" fill="black"/>
<path d="M9 9H10V10H9V9Z" fill="black"/>
<path d="M11 9H12V10H11V9Z" fill="black"/>
<path d="M10 8H11V9H10V8Z" fill="black"/>
<path d="M6 9H7V10H6V9Z" fill="#DFB9C7"/>
<path d="M14 9H15V10H14V9Z" fill="#DFB9C7"/>
</svg>
